<svg width="20" height="25" viewBox="0 0 20 25" fill="none" xmlns="http://www.w3.org/2000/svg">
<path fill-rule="evenodd" clip-rule="evenodd" d="M5.52561 11.934C6.19581 13.552 7.77468 14.607 9.526 14.607C11.9174 14.607 13.856 12.6684 13.856 10.277C13.856 8.52568 12.801 6.9468 11.183 6.2766C9.56501 5.6064 7.7026 5.97686 6.46423 7.21523C5.22586 8.4536 4.8554 10.316 5.52561 11.934ZM6.926 10.278C6.926 8.84206 8.09006 7.678 9.526 7.678C10.9619 7.678 12.126 8.84206 12.126 10.278C12.126 11.7139 10.9619 12.878 9.526 12.878C8.09006 12.878 6.926 11.7139 6.926 10.278Z" fill="#2D7CFD"/>
<path fill-rule="evenodd" clip-rule="evenodd" d="M2.22 16.383L9.527 25L16.837 16.378C16.878 16.332 17.137 15.991 17.137 15.991C18.3844 14.3475 19.0582 12.3402 19.055 10.277C19.055 5.01538 14.7896 0.75 9.528 0.75C4.26638 0.75 0.000997039 5.01538 0.000997039 10.277C-0.00204832 12.341 0.672086 14.349 1.92 15.993C2.01866 16.1237 2.11866 16.2537 2.22 16.383ZM3.55 15.273C3.501 15.215 3.301 14.949 3.301 14.949L3.303 14.948C2.28271 13.6043 1.7312 11.9631 1.733 10.276C1.70122 7.47026 3.17985 4.86393 5.60454 3.45181C8.02923 2.03968 11.0258 2.03968 13.4505 3.45181C15.8751 4.86393 17.3538 7.47026 17.322 10.276C17.3242 11.9623 16.7734 13.6027 15.754 14.946C15.7537 14.9463 15.7372 14.9681 15.7127 15.0002C15.6511 15.0814 15.5392 15.2286 15.512 15.263L9.527 22.322L3.55 15.273Z" fill="#2D7CFD"  />
</svg>
