<svg width="23" height="23" viewBox="0 0 23 23" fill="none" xmlns="http://www.w3.org/2000/svg">
<path fill-rule="evenodd" clip-rule="evenodd" d="M0.837627 16.2094C2.54016 20.3197 6.551 22.9997 11 22.9999C13.919 23.0081 16.7199 21.8478 18.778 19.7779C21.5879 17.0054 22.6968 12.9397 21.6836 9.1245C20.6704 5.30925 17.6906 2.32942 13.8754 1.31625C10.0601 0.303088 5.9945 1.41195 3.22197 4.22188C0.0761416 7.36786 -0.864903 12.099 0.837627 16.2094ZM1.99997 11.9999C1.99997 7.02932 6.02941 2.99988 11 2.99988C15.9683 3.0054 19.9945 7.03161 20 11.9999C20 16.9704 15.9705 20.9999 11 20.9999C6.02941 20.9999 1.99997 16.9704 1.99997 11.9999ZM6.75497 17.2409C6.43347 17.2391 6.13244 17.0828 5.94597 16.8209C5.75711 16.5607 5.70709 16.2248 5.81197 15.9209L7.93197 9.56088C8.03153 9.26256 8.26564 9.02845 8.56397 8.92888L14.924 6.80888C15.0277 6.77397 15.1365 6.75607 15.246 6.75588C15.5671 6.75801 15.8677 6.91426 16.054 7.17588C16.2428 7.43604 16.2929 7.77199 16.188 8.07588L14.068 14.4359C13.9675 14.7342 13.7333 14.9684 13.435 15.0689L7.07497 17.1889C6.97175 17.2231 6.86372 17.2407 6.75497 17.2409ZM9.67097 10.6709L13.655 9.34088H13.659L12.329 13.3289L8.34097 14.6589L9.67097 10.6709Z" fill="#2D7CFD"/>
<mask id="mask0_0_3210" style="mask-type:luminance" maskUnits="userSpaceOnUse" x="0" y="0" width="23" height="23">
<path fill-rule="evenodd" clip-rule="evenodd" d="M11 22.9999C6.551 22.9997 2.54016 20.3197 0.837627 16.2094C-0.864903 12.099 0.0761416 7.36786 3.22197 4.22188C5.9945 1.41195 10.0601 0.303088 13.8754 1.31625C17.6906 2.32942 20.6704 5.30925 21.6836 9.1245C22.6968 12.9397 21.5879 17.0054 18.778 19.7779C16.7199 21.8478 13.919 23.0081 11 22.9999ZM11 2.99988C6.02941 2.99988 1.99997 7.02932 1.99997 11.9999C1.99997 16.9704 6.02941 20.9999 11 20.9999C15.9705 20.9999 20 16.9704 20 11.9999C19.9945 7.03161 15.9683 3.0054 11 2.99988ZM6.75497 17.2409C6.43347 17.2391 6.13244 17.0828 5.94597 16.8209C5.75711 16.5607 5.70709 16.2248 5.81197 15.9209L7.93197 9.56088C8.03153 9.26256 8.26564 9.02845 8.56397 8.92888L14.924 6.80888C15.0277 6.77397 15.1365 6.75607 15.246 6.75588C15.5671 6.75801 15.8677 6.91426 16.054 7.17588C16.2428 7.43604 16.2929 7.77199 16.188 8.07588L14.068 14.4359C13.9675 14.7342 13.7333 14.9684 13.435 15.0689L7.07497 17.1889C6.97175 17.2231 6.86372 17.2407 6.75497 17.2409ZM13.655 9.34088V9.34088L9.67097 10.6709L8.34097 14.6589L12.329 13.3289L13.659 9.34088H13.655Z" fill="white"/>
</mask>
<g mask="url(#mask0_0_3210)">
<rect x="-1" width="24" height="24" fill="#2D7CFD"/>
</g>
</svg>
