<svg width="16" height="20" viewBox="0 0 16 20" fill="none" xmlns="http://www.w3.org/2000/svg">
<mask id="mask0_0_3229" style="mask-type:luminance" maskUnits="userSpaceOnUse" x="0" y="0" width="17" height="20">
<path fill-rule="evenodd" clip-rule="evenodd" d="M15.0002 20C14.7925 19.9996 14.5903 19.9338 14.4222 19.812L8.00016 15.229L1.58116 19.814C1.41193 19.9357 1.20859 20.0008 1.00016 20C0.739807 19.9996 0.489438 19.8998 0.30016 19.721C0.105192 19.5322 -0.00333157 19.2714 0.000159692 19V3C0.000159692 1.34315 1.34331 0 3.00016 0H13.0002C14.657 0 16.0002 1.34315 16.0002 3V19C16.0002 19.5523 15.5524 20 15.0002 20ZM8.00016 13C8.20881 12.9998 8.41232 13.0648 8.58216 13.186L14.0002 17.057V3C14.0002 2.44772 13.5524 2 13.0002 2H3.00016C2.44788 2 2.00016 2.44772 2.00016 3V17.057L7.41916 13.186C7.58851 13.0646 7.79177 12.9995 8.00016 13Z" fill="white"/>
</mask>
<g mask="url(#mask0_0_3229)">
<rect x="-3.99976" y="-2" width="24" height="24" fill="#2D7CFD"/>
</g>
</svg>
